<svg xmlns:x="http://ns.adobe.com/Extensibility/1.0/" xmlns:i="http://ns.adobe.com/AdobeIllustrator/10.0/" xmlns:graph="http://ns.adobe.com/Graphs/1.0/" xmlns="http://www.w3.org/2000/svg" xmlns:xlink="http://www.w3.org/1999/xlink" version="1.1" x="0px" y="0px" viewBox="0 0 336 144" enable-background="new 0 0 336 144" xml:space="preserve">


<g id="outputsvg">
	<g>
		<path d="M6,96.9863281h9.4222221c2.5480003,0,4.5071106,0.1991806,5.8777771,0.5975494    c1.3702221,0.3983688,2.4000015,0.9737854,3.0888901,1.7262497c0.6888885,0.7524719,1.1555557,1.6634064,1.3999996,2.7336807    c0.2444439,1.0693893,0.3666668,2.725708,0.3666668,4.968071v3.1205368c0,2.2875061-0.2373333,3.9544449-0.7111111,5.001709    c-0.4742222,1.0481415-1.3444443,1.8519592-2.6111107,2.412323c-1.2666664,0.5612564-2.9222221,0.8409958-4.9666672,0.8409958    h-2.5111113v14.4297104H6V96.9863281z M15.3555555,103.116745v9.1181564    c0.2666664,0.0150528,0.4960003,0.0221329,0.6888895,0.0221329c0.8591099,0,1.455555-0.2098083,1.7888889-0.6311874    c0.3333321-0.4196167,0.5-1.2942505,0.5-2.622139v-2.9434814c0-1.2243118-0.1928902-2.0210495-0.5777779-2.3901978    C17.3702221,103.3017578,16.5702229,103.116745,15.3555555,103.116745z"/>
		<path d="M37.8222237,96.9863281v4.6697388h-9.2444458v-4.6697388H37.8222237z M37.8222237,103.4487152v29.3684387h-9.2444458    v-29.3684387H37.8222237z"/>
		<path d="M50.1777763,103.4487152l-0.1555557,2.5946884c0.8000031-1.0490265,1.6813354-1.8324814,2.6444473-2.349472    c0.9626656-0.5178757,2.0146637-0.7763748,3.1555557-0.7763748c1.3924446,0,2.5959969,0.3726959,3.6111107,1.1180801    c1.0146675,0.7445068,1.6479988,1.6040878,1.8999977,2.5778732c0.2515564,0.9737854,0.3777809,2.626564,0.3777809,4.9574509    v12.3714828c0,2.6708221-0.1595573,4.5705872-0.4777794,5.69841c-0.3186684,1.1295776-0.9706688,2.029007-1.955555,2.7000275    c-0.9853325,0.6719208-2.1742249,1.007431-3.5666656,1.007431c-1.1111145,0-2.140892-0.2584991-3.0888901-0.7763672    c-0.9484444-0.5169983-1.8151131-1.2854004-2.6000023-2.3052216V137H41.044445v-33.5512848H50.1777763z M52.7333336,111.9914551    c0-1.8147812-0.0666656-2.9133835-0.2000008-3.2975845c-0.1333313-0.383316-0.5039978-0.5754166-1.1111107-0.5754166    c-0.5928879,0-0.9742203,0.2213135-1.1444435,0.6639404c-0.1706657,0.442627-0.255558,1.5129089-0.255558,3.2090607v12.1723022    c0,1.7705154,0.0888901,2.8770905,0.2666664,3.3197174c0.1777802,0.442627,0.5626678,0.6639404,1.1555557,0.6639404    c0.5777779,0,0.9368896-0.2027206,1.0777779-0.6081696c0.1404457-0.4063339,0.211113-1.3907394,0.211113-2.9549942V111.9914551z"/>
		<path d="M85,118.6530228H73.3777771v6.3517303c0,1.3278885,0.0960007,2.1839294,0.288887,2.5672455    c0.1924438,0.384201,0.5626678,0.5754166,1.1111145,0.5754166c0.6813354,0,1.1368866-0.2540665,1.3666687-0.7639771    c0.229332-0.5081329,0.3444443-1.4934311,0.3444443-2.9541016v-3.8730087H85v2.1688843    c0,1.8147812-0.1151123,3.2090607-0.3444443,4.1828461c-0.2297745,0.9737854-0.7666702,2.0139542-1.6111145,3.1205368    c-0.8444443,1.1065674-1.9151077,1.9369354-3.2111053,2.4893494c-1.2964478,0.5541687-2.922226,0.830368-4.8777771,0.830368    c-1.8964462,0-3.5706711-0.2735443-5.0222244-0.8188629c-1.4520035-0.5453186-2.5817795-1.2951355-3.3888931-2.2459106    c-0.8075485-0.9525299-1.3666611-1.9997864-1.6777725-3.142662c-0.3111115-1.1437531-0.4666672-2.8071518-0.4666672-4.9910812    v-8.5648727c0-2.5672531,0.3479996-4.591835,1.0444412-6.075531c0.6959991-1.4819183,1.8368912-2.6185913,3.422226-3.4082413    c1.5848846-0.788765,3.4071121-1.1835938,5.4666672-1.1835938c2.518219,0,4.5960007,0.4753876,6.2333298,1.4279251    c1.6368866,0.9507675,2.7848892,2.2131424,3.4444427,3.7835922C84.6702194,109.7012939,85,111.9108963,85,114.7578888V118.6530228    z M76,113.8726273v-2.1467514c0-1.519104-0.0817795-2.5008545-0.2444458-2.9434814    c-0.1631088-0.442627-0.4964447-0.6639404-1-0.6639404c-0.6222229,0-1.0075531,0.1876678-1.1555557,0.5647888    c-0.1484451,0.375351-0.2222214,1.3907394-0.2222214,3.0426331v2.1467514H76z"/>
		<path d="M97.1777802,96.9863281v35.8308258h-9.2444458V96.9863281H97.1777802z"/>
		<path d="M109.6444473,96.9863281v4.6697388h-9.2444458v-4.6697388H109.6444473z M109.6444473,103.4487152v29.3684387h-9.2444458    v-29.3684387H109.6444473z"/>
		<path d="M122,103.4487152l-0.1555557,2.7053452c0.6515579-1.0791245,1.447998-1.8882523,2.3893356-2.4273758    c0.9404449-0.5391235,2.0248871-0.8091278,3.2551117-0.8091278c1.5404358,0,2.8000031,0.3620758,3.777771,1.0844421    c0.9777832,0.723259,1.6071167,1.6341858,1.8888855,2.7336807c0.280899,1.0986023,0.422226,2.9319763,0.422226,5.4992218    v20.5822525h-8.9777756v-20.3388062c0-2.0210419-0.0666656-3.2533264-0.1999969-3.6959534    s-0.5039978-0.6639404-1.1111145-0.6639404c-0.6373291,0-1.0373306,0.2549515-1.1999969,0.763092    c-0.163559,0.509903-0.2444458,1.8705444-0.2444458,4.0836945v19.8519135h-8.9777756v-29.3684387H122z"/>
		<path d="M157,118.6530228h-11.6222229v6.3517303c0,1.3278885,0.0960083,2.1839294,0.2888947,2.5672455    c0.1920013,0.384201,0.5626678,0.5754166,1.1110992,0.5754166c0.6808929,0,1.1369019-0.2540665,1.3662262-0.7639771    c0.2302246-0.5081329,0.3448944-1.4934311,0.3448944-2.9541016v-3.8730087H157v2.1688843    c0,1.8147812-0.1146698,3.2090607-0.3439941,4.1828461c-0.2302246,0.9737854-0.7671204,2.0139542-1.611557,3.1205368    c-0.8444519,1.1065674-1.9146729,1.9369354-3.2115631,2.4893494c-1.29599,0.5541687-2.9217682,0.830368-4.8773346,0.830368    c-1.8968811,0-3.5706635-0.2735443-5.0222168-0.8188629c-1.4524384-0.5453186-2.5813293-1.2951355-3.389328-2.2459106    c-0.8071136-0.9525299-1.3662262-1.9997864-1.6773376-3.142662c-0.3111115-1.1437531-0.4666748-2.8071518-0.4666748-4.9910812    v-8.5648727c0-2.5672531,0.3475647-4.591835,1.0444489-6.075531c0.6959991-1.4819183,1.836441-2.6185913,3.422226-3.4082413    c1.5848846-0.788765,3.4071045-1.1835938,5.4666595-1.1835938c2.5182343,0,4.5964508,0.4753876,6.2337799,1.4279251    c1.6364441,0.9507675,2.7848969,2.2131424,3.4435577,3.7835922C156.6702271,109.7012939,157,111.9108963,157,114.7578888    V118.6530228z M148,113.8726273v-2.1467514c0-1.519104-0.0817719-2.5008545-0.2444458-2.9434814    c-0.163559-0.442627-0.4968872-0.6639404-1-0.6639404c-0.6222229,0-1.0079956,0.1876678-1.1555481,0.5647888    c-0.1484528,0.375351-0.222229,1.3907394-0.222229,3.0426331v2.1467514H148z"/>
	</g>
	<g>
		<path d="M179.4639893,97.7457047h15.7503662l-2.29422,7.106102h-6.3046265l-2.1738434,6.7332535h5.9007721l-2.1809082,6.755188    h-5.9007874l-2.5207977,7.8079453h6.9328613l-2.29422,7.1061096H168L179.4639893,97.7457047z"/>
		<path d="M217.7068634,97.7457047l-8.3905182,15.7036133l-1.3907318,19.804985h-8.7502136    c0.0967712-3.5403595,0.5319977-7.8529663,1.3058777-12.9401321c-0.9654083,2.2532654-2.0668182,4.6369705-3.3044281,7.1499634    l-2.7579651,5.7901688h-9.1989288l9.826828-19.804985l1.637146-15.7036133h9.1316223    c-0.1497498,0.9777222-0.3476868,2.6076508-0.5944061,4.8897705c-0.1650848,1.7384338-0.3596191,3.3395004-0.583374,4.8043594    l5.1490326-9.6941299H217.7068634z"/>
		<path d="M220.7245636,97.7457047h9.513031c2.5725098,0,4.4867401,0.1973877,5.7432556,0.5921707    c1.2559204,0.394783,2.1115723,0.9650269,2.5663452,1.7107315c0.4547882,0.7457047,0.6345062,1.6483917,0.5391998,2.7080765    c-0.0957031,1.0608368-0.502243,2.7023087-1.2196503,4.924408l-0.9984131,3.0924683    c-0.7319336,2.2671204-1.5049591,3.9189835-2.3182526,4.9567337c-0.8142548,1.0389023-1.9499664,1.8353958-3.4080963,2.3906326    c-1.4585114,0.5563889-3.2194672,0.8334274-5.2836151,0.8334274h-2.5353088l-4.616745,14.2999496h-9.4457397    L220.7245636,97.7457047z M228.2088776,103.8209839l-2.9173279,9.0361557    c0.264389,0.015007,0.4936066,0.0219345,0.688446,0.0219345c0.8673401,0,1.5370331-0.208931,2.0077515-0.6244965    c0.4714508-0.4178696,0.9192352-1.2836227,1.3440857-2.5995712l0.9417725-2.9170074    c0.3916779-1.2132111,0.4517517-2.0027771,0.1813812-2.3687057    C230.1836548,104.0045242,229.4352112,103.8209839,228.2088776,103.8209839z"/>
		<path d="M243.7891998,97.7457047h6.6860504c4.4571686,0,7.4204712,0.1685333,8.8902283,0.5044403    c1.468811,0.3370667,2.4780884,1.1959,3.0272522,2.5764847c0.547821,1.3828964,0.3341064,3.5865326-0.6430664,6.613205    c-0.8921814,2.7634811-1.8437195,4.6208115-2.8530579,5.5708389c-1.0102844,0.9511719-2.5777893,1.5214157-4.7030487,1.7107239    c1.7228546,0.4536591,2.7832489,1.0608368,3.1815948,1.8203964c0.3973999,0.760704,0.5722351,1.4590759,0.5243225,2.0939636    c-0.0486755,0.6371994-0.5354919,2.3883286-1.4604797,5.2533951l-3.0235443,9.3651505h-8.772644l3.8095245-11.7996521    c0.6134338-1.9000397,0.8400574-3.0774612,0.6800842-3.5311203c-0.1609344-0.4524994-0.891098-0.6799011-2.1924133-0.6799011    l-5.1690521,16.0106735h-9.4457397L243.7891998,97.7457047z M251.2735138,103.8209839l-2.549118,7.8956757    c1.0615997,0,1.8523407-0.1431427,2.3703156-0.4271088c0.5187073-0.2862778,1.0299988-1.2097473,1.5353546-2.7750244    l0.6302032-1.9519882c0.3633575-1.1254807,0.395813-1.8642578,0.098175-2.2151794    C253.0601959,103.9964447,252.3652344,103.8209839,251.2735138,103.8209839z"/>
		<path d="M268.5365601,97.7457047h15.7503662l-2.29422,7.106102h-6.3046265l-2.1738281,6.7332535h5.9007874l-2.1809387,6.755188    h-5.9007568l-2.520813,7.8079453h6.9328613l-2.29422,7.1061096h-16.3786011L268.5365601,97.7457047z"/>
		<path d="M304.1736145,108.4925919h-8.772644l0.8497009-2.6318893c0.3965149-1.2282181,0.5366516-2.0097046,0.4211121-2.3467712    c-0.1159058-0.3359146-0.4358521-0.5044479-0.9589539-0.5044479c-0.5686035,0-1.0718384,0.2274094-1.5099792,0.6810608    s-0.8057251,1.1404877-1.1034851,2.0628052c-0.3823853,1.1843491-0.5072937,2.0778046-0.372406,2.6769104    c0.1191101,0.6002502,0.775238,1.3240204,1.9683228,2.1713028c3.4169922,2.4391174,5.4184875,4.4418945,6.0057983,6.0060272    c0.5863647,1.5652771,0.3182068,4.0875092-0.8050537,7.5666809c-0.8168945,2.5303116-1.7216797,4.3945618-2.7142944,5.5927734    c-0.9930115,1.1993561-2.4880676,2.2036285-4.4851074,3.0162811C290.699707,133.5936737,288.5492554,134,286.2459717,134    c-2.5282288,0-4.5343628-0.4686584-6.0197144-1.4036713c-1.4859619-0.9350128-2.2712402-2.1274567-2.3571167-3.5749817    c-0.0864868-1.4475479,0.3001709-3.5011139,1.1595764-6.1630173l0.7505798-2.3248367h8.772644l-1.394928,4.3206863    c-0.429718,1.3309479-0.5824585,2.1863174-0.4582825,2.5660934c0.1238098,0.380928,0.5002136,0.5702438,1.128418,0.5702438    c0.6282349,0,1.1731567-0.2412567,1.6359558-0.7237701c0.4622192-0.4825134,0.8468018-1.198204,1.1538696-2.1493759    c0.6749268-2.0905075,0.8245239-3.4572449,0.4491272-4.1013641c-0.3911133-0.6429672-1.5173035-1.717659-3.3790894-3.2240677    c-1.8579102-1.5202637-3.0568237-2.6238098-3.5975647-3.3117981c-0.5410767-0.6868286-0.8667297-1.6368484-0.9753418-2.8512115    c-0.1096191-1.2132111,0.140564-2.7634888,0.7495117-4.6496735c0.8780518-2.7196198,1.8746338-4.7073898,2.9917297-5.9656219    c1.1161499-1.2570724,2.5814819-2.2405701,4.3965759-2.9504852C293.06604,97.3543854,295.0952454,97,297.3388672,97    c2.4526672,0,4.4181519,0.3878555,5.8956909,1.1624222c1.4771729,0.7757111,2.3065186,1.7511292,2.4876709,2.9273987    c0.1807861,1.1774216-0.1846313,3.1778946-1.095459,5.9990921L304.1736145,108.4925919z"/>
		<path d="M327.9337769,108.4925919h-8.772644l0.8497009-2.6318893c0.3965454-1.2282181,0.5366516-2.0097046,0.4211121-2.3467712    c-0.1159058-0.3359146-0.4358215-0.5044479-0.9589539-0.5044479c-0.5686035,0-1.0718384,0.2274094-1.5099792,0.6810608    s-0.8057251,1.1404877-1.1034851,2.0628052c-0.3823853,1.1843491-0.5072632,2.0778046-0.372406,2.6769104    c0.1191406,0.6002502,0.775238,1.3240204,1.9683228,2.1713028c3.4169922,2.4391174,5.4184875,4.4418945,6.0057983,6.0060272    c0.5863647,1.5652771,0.3182068,4.0875092-0.8050537,7.5666809c-0.8168945,2.5303116-1.7216797,4.3945618-2.7142944,5.5927734    c-0.9930115,1.1993561-2.4880676,2.2036285-4.4851074,3.0162811C314.4598694,133.5936737,312.3094177,134,310.006134,134    c-2.5282288,0-4.5343628-0.4686584-6.0197144-1.4036713c-1.4859619-0.9350128-2.2712097-2.1274567-2.3571167-3.5749817    c-0.0864868-1.4475479,0.3002014-3.5011139,1.1595764-6.1630173l0.7505798-2.3248367h8.772644l-1.394928,4.3206863    c-0.429718,1.3309479-0.5824585,2.1863174-0.4582825,2.5660934c0.1238403,0.380928,0.5002136,0.5702438,1.1284485,0.5702438    c0.6282043,0,1.1731262-0.2412567,1.6359253-0.7237701c0.4622192-0.4825134,0.8468018-1.198204,1.1538696-2.1493759    c0.6749268-2.0905075,0.8245239-3.4572449,0.4491272-4.1013641c-0.3911133-0.6429672-1.5172729-1.717659-3.3790894-3.2240677    c-1.8579102-1.5202637-3.0568237-2.6238098-3.5975647-3.3117981c-0.5410767-0.6868286-0.8667297-1.6368484-0.9753418-2.8512115    c-0.1095886-1.2132111,0.140564-2.7634888,0.7495117-4.6496735c0.8780518-2.7196198,1.8746338-4.7073898,2.9917603-5.9656219    c1.1161194-1.2570724,2.5814514-2.2405701,4.3965454-2.9504852C316.8262329,97.3543854,318.8554077,97,321.0990601,97    c2.4526367,0,4.4181519,0.3878555,5.8956909,1.1624222c1.4771423,0.7757111,2.306488,1.7511292,2.4876404,2.9273987    c0.1807861,1.1774216-0.1846313,3.1778946-1.095459,5.9990921L327.9337769,108.4925919z"/>
	</g>
	<g>
		<path fill="#020303" d="M159.2255554,85.5060196c1.0957031-1.1869507,1.3695679-1.8260498,1.0500488-2.2369385    c-0.3652344-0.4108887-1.0043945-0.2739258-2.8760986,0.776123c-2.6021729,1.5064697-7.8065186,2.7390747-11.3217773,2.7390747    h-2.2825928l0.2739258-2.6021729c0.5478516-4.793457,1.2782593-7.6239014,2.6478271-10.3173828    c1.1869507-2.4195557,1.3239136-3.5151978,0.4108887-3.5151978c-0.2282715,0-1.2782593,0.8673706-2.3283081,1.9630127    c-3.4695435,3.4239502-5.8890991,10.3630981-5.9347534,16.8913574v3.0586548h1.8717041    c1.0043945,0,3.3326416-0.2282715,5.1130981-0.5021362C151.6473083,90.8929825,156.2125549,88.7473526,159.2255554,85.5060196z"/>
		<path fill="#020303" d="M165.5256042,78.612587c3.2869263-1.4608765,3.6065063-1.1869507,4.5651855,3.6978149    c0.456543,2.3282471,1.0499878,5.0217285,1.2782593,5.9347534l0.5021973,1.6891479l2.6021729-1.7804565    c1.4608765-1.0043335,2.9217529-2.0543213,3.241272-2.3739014c0.3652344-0.3195801,1.5065308-1.2782593,2.6021729-2.0999756    l1.9174194-1.5521851l0.0456543-7.3499756v-7.3956909l3.7434692-2.9674072    c10.4543457-8.3086548,21.5478516-18.7630005,24.6065063-23.0999756c4.2456665-6.026062,7.5325928-14.973938,8.5826416-23.1456299    c0.2282715-1.8261108,0.5477905-4.2000122,0.7304077-5.2956543l0.3195801-2.008728l-3.1500244,0.3195801    c-12.6912842,1.2782593-21.4108276,4.473938-29.6738892,10.8195801    c-3.3782959,2.6021729-8.6282959,8.2630615-17.758728,19.1282349c-3.241272,3.8804321-6.1173706,7.2130737-6.3912964,7.3956909    c-0.2282715,0.1825562-3.5608521,0.3651733-7.3499756,0.3651733h-6.9391479l-1.2782593,1.5065308    c-1.9630127,2.1912842-6.5739136,8.3087158-6.5739136,8.6739502c0,0.1369019,0.776123,0.4108276,1.7348022,0.5934448    c0.9130249,0.1369629,2.8304443,0.5478516,4.2000122,0.8673706c1.3695679,0.3195801,3.2869263,0.7304688,4.2456055,0.8674316    c1.4152222,0.2739258,1.6891479,0.5021362,1.6891479,1.4608765c0,0.6390991-0.456543,2.1912842-1.0043335,3.4238892    c-0.9130249,2.1456299-0.9130249,2.4195557-0.2739258,3.7434692c1.7348022,3.5152588,8.4456787,9.5869751,10.5913086,9.5413208    C162.8321228,79.5712662,164.2929993,79.1147232,165.5256042,78.612587z M193.2937317,30.7400284    c2.1210938-0.4721069,4.5895386,0.0875854,6.2362671,1.7546997c0.4039917,0.4089966,0.7071533,0.9081421,0.9321899,1.4370728    l0.256958,0.6039429c0.3598022,0.8455811,0.4883423,2.2741699,0.2353516,3.1576538    c-0.8054199,2.8123779-3.0889893,4.3946533-5.4455566,4.5570068c-2.8447876,0.1959229-5.7958984-1.6775513-6.3811035-5.9544678    C188.8957825,33.1697769,190.8675232,31.2800064,193.2937317,30.7400284z"/>
	</g>
</g>
<g id="_x3C_Layer_x3E_">
</g>
</svg>