<svg xmlns:x="http://ns.adobe.com/Extensibility/1.0/" xmlns:i="http://ns.adobe.com/AdobeIllustrator/10.0/" xmlns:graph="http://ns.adobe.com/Graphs/1.0/" xmlns="http://www.w3.org/2000/svg" xmlns:xlink="http://www.w3.org/1999/xlink" version="1.1" x="0px" y="0px" viewBox="0 0 336 144" enable-background="new 0 0 336 144" xml:space="preserve">


<path id="pnRmwN8Mz" fill="#020303" d="M138.3695679,84.5065231     c-0.6541901-8.0842438,5.4291534-25.3454094,11.7790833-18.3087311     c-0.1492462,3.1427002-5.6300964,14.1255646-2.9217682,14.519722c21.121994-5.6988754,12.527298-2.0278397,4.4273834-13.2384872     c-2.3427582-2.4405136,0.6024323-7.0766373-0.0441284-9.1313324c-13.96698-2.2492676-13.250061-3.4859314-4.3831787-14.0158424     c1.7792358-3.2442703,14.1355896-0.6387787,15.5663452-1.8719788     c17.6031647-20.7024097,28.4207306-36.4913216,55.1485138-37.3870506     c1.0949707,0.5157399,5.5399323-1.734782,4.4268036,1.5054746     c-0.4449768,26.2758942-15.0437775,39.9904404-37.8458405,57.4754448     c0.0028229,3.6706009-0.005127,11.076828-0.0445557,14.7462616c-9.7430878,7.6182938-13.8176575,13.6420898-15.7033539-3.9268951     c-11.0770416,3.5054398-2.6624756,0.3637695-7.3043518,7.2601929     C159.986618,85.6677475,135.9686584,94.8872528,138.3695679,84.5065231z M198.0369568,35.0652161     c8.3458099-5.6449318-5.6727295-13.3643169-6.7107391-3.6970558     C192.0499268,33.6590729,195.3892212,37.5829086,198.0369568,35.0652161z"/><path id="prDcjKzhY" fill="#FFFFFF" d="M51.6304359,122.4891281c-0.5021744-1.2782593-0.6391335-16.6630402-0.1826096-18.3978271     c0.22826-0.7304306,0.5934792-1.0043411,1.2782593-0.9130402c0.913044,0.1369553,0.9586983,0.4108734,1.1869583,7.6695633     c0.2739143,9.5413055,0.0456505,12.5086975-1.0043488,12.6913071     C52.3608704,123.6304321,51.9500008,123.2652206,51.6304359,122.4891281z"/><path id="pIR6JYyUL" fill="#FFFFFF" d="M0.5,72.5V1.2826087h168h168V72.5v71.217392h-168H0.5V72.5z M51.173912,129.0630493     v-3.1956558l1.5978279,1.232605c3.0586929,2.32827,7.3499985,1.826088,9.2217369-1.0499954     c0.7304344-1.0956573,0.8217392-2.6478271,0.9586983-12.2804413c0.1826057-12.2804337,0.0456505-13.1021729-2.7847824-14.7912979     c-2.1000023-1.2782669-4.3369598-1.141304-6.8021736,0.4108658l-2.054348,1.3239136l0.1369553-1.0956497     c0.0913048-1.0956573,0.0913048-1.0956573-4.4282608-1.0956573H42.5v16.891304v16.8913116h4.336956h4.336956V129.0630493z      M80.0260849,128.1956482c3.9260864-1.0956497,6.3000031-4.6108627,6.3000031-9.3586884v-2.967392h-4.108696h-4.108696     l-0.0456543,2.6478271c-0.0456467,3.7891235-0.4565201,4.8847809-1.7804337,4.8847809     c-1.141304,0-1.141304-0.0456543-1.2782593-4.6565247l-0.1369553-4.7021713h5.797821h5.7978287l-0.2282639-4.7478256     c-0.1826019-4.017395-0.3652115-5.0217438-1.3695602-6.7108688c-3.8804398-6.5739136-16.5717392-5.6608734-18.4891357,1.3239136     c-0.2282562,0.6847763-0.3652115,5.1586914-0.3652115,9.906517c0,9.6326065,0.2282562,10.5456543,3.0586929,12.7369614     C71.6717377,128.515213,76.3282623,129.1999969,80.0260849,128.1956482z M151.6999969,128.1956482     c3.9260864-1.0956497,6.2543488-4.656517,6.3000031-9.4499969v-2.8760834h-4.1086884h-4.1087036l-0.0456543,2.6478271     c-0.0456543,3.7891235-0.4565125,4.8847809-1.780426,4.8847809c-1.1413116,0-1.1413116-0.0456543-1.2782593-4.6565247     l-0.1369629-4.7021713h5.797821h5.7978363l-0.2282715-4.6565247c-0.1826019-3.6065216-0.4565125-5.1586914-1.1869507-6.6195602     c-3.469574-6.7565231-16.7086945-5.9347839-18.6717377,1.141304c-0.2282715,0.6847763-0.3652191,5.1586914-0.3652191,9.906517     c0,9.6326065,0.2282562,10.5456543,3.0587006,12.7369614     C143.3456573,128.515213,148.0021667,129.1999969,151.6999969,128.1956482z M294.3630371,126.826088     c3.4239197-1.6891327,4.6565247-3.3326111,6.3456726-8.217392c2.0543213-6.1173935,1.4151917-8.3086929-3.6521912-12.3717422     c-1.6434631-1.2782593-3.1043396-2.6934738-3.2413025-3.0586929c-0.3195496-0.8673935,0.547821-3.6978226,1.5065308-4.7478256     c0.7304382-0.8673935,2.1456299-1.0956497,2.5565186-0.4108734c0.1369629,0.2282639-0.0456543,1.2782669-0.4108887,2.3282623     c-0.3652039,1.0500031-0.6847534,2.0999985-0.6847534,2.3282623s1.9173889,0.4108734,4.245636,0.4108734h4.2456665     l0.5934753-1.5978317c0.3195496-0.9130402,0.6847839-2.7391281,0.8217163-4.108696     c0.2282715-2.2369537,0.1369629-2.5565186-0.9586792-3.5608673c-3.8347778-3.5608673-14.4717407-2.282608-17.8500061,2.1456528     c-1.6891174,2.1913071-3.5152283,7.0304337-3.6065063,9.4499969c-0.0456543,2.8304367,0.6391296,3.9717407,4.3369446,7.0304413     c1.7347717,1.4608688,3.2869568,3.1499939,3.4239197,3.7434769c0.1825867,0.5934753-0.0913086,2.1456528-0.547821,3.4695663     c-0.6847839,1.7804337-1.1869812,2.4652176-2.1456604,2.7847824c-2.0086975,0.7304306-2.236969-0.0456543-1.004364-3.9717407     l1.0500183-3.5152206h-4.2456665c-4.1999817,0-4.245636,0-4.7478333,1.2782593     c-1.0043335,2.5108719-1.8717346,6.7565231-1.6434631,7.8978271c0.3652039,1.5521774,2.3282471,3.423912,4.3369446,4.0173874     C286.0086975,129.017395,291.0760803,128.4239197,294.3630371,126.826088z M318.1021729,126.826088     c3.4239197-1.6891327,4.6565247-3.3326111,6.3456421-8.217392c1.9630432-5.7978287,1.3695679-8.3086929-2.8304138-11.6869583     c-3.6978455-3.0130386-4.2456665-3.6978226-4.0630493-4.7478256c0.547821-2.9217377,1.6434631-4.5652161,3.013031-4.5652161     c1.232605,0,1.3695679,0.6391296,0.6391296,2.7391281c-0.3652039,1.0500031-0.6847839,2.0999985-0.6847839,2.3282623     s1.9630432,0.4108734,4.3369751,0.4108734h4.2912903l0.5021667-1.6891327     c0.2739258-0.9586945,0.6391296-2.7847824,0.7760925-4.108696c0.2282715-2.1456528,0.1369629-2.4652176-0.9586792-3.4695663     c-3.8347778-3.5608673-14.4717407-2.282608-17.8500061,2.1456528c-1.780426,2.3739166-3.5152283,7.076088-3.5608826,9.6782608     c-0.0456543,2.7391281,0.5021973,3.6065216,4.6565247,7.0304337c1.5065308,1.3239136,2.9217529,2.876091,3.0587158,3.4695663     c0.1825867,0.6391296-0.0913086,2.1456528-0.5478516,3.5152206c-0.6847839,1.7804337-1.1869507,2.4652176-2.1456299,2.7847824     c-2.1000061,0.7304306-2.3282776-0.0913086-1.0956726-3.8804398l1.0956726-3.3782578l-4.1087036-0.1369553     c-4.6565247-0.1369629-4.4739075-0.2282639-5.6152039,3.5608673c-1.2326355,4.0630417-1.0956726,6.0717392,0.4565125,7.7152176     c1.6891174,1.7804413,3.8347778,2.3282623,7.9891357,2.1000061     C314.4043579,128.2869568,315.8195801,127.9217377,318.1021729,126.826088z M16.706522,120.8456497v-7.1673889     l3.195652-0.1826096c6.4369564-0.4108658,7.532608-1.9630432,7.532608-10.4086914     c0-4.5652237-0.1369553-5.7978287-0.9130421-7.2586975c-1.4608707-2.9217377-3.1043491-3.423912-11.7326097-3.6065216     L7.347826,92.0391312v18.0782623v18.123909l4.7021742-0.1369476l4.6565218-0.1369629V120.8456497z M39.304348,113.358696     V98.5217361h-4.7934799H29.717392v14.8369598v14.8369522h4.7934761h4.7934799V113.358696z M98.6521759,110.1630402v-18.032608     H93.858696h-4.7934799v18.032608v18.032608h4.7934799h4.7934799V110.1630402z M110.9782639,113.358696V98.5217361h-4.7934799     h-4.7934799v14.8369598v14.8369522h4.7934799h4.7934799V113.358696z M122.8478241,116.2347794     c0-6.6195602,0.1826096-12.2804337,0.4108734-12.5999985c0.2282562-0.3652191,0.7760849-0.547821,1.232605-0.4565201     c0.8217392,0.1369553,0.8673935,0.8217392,1.0043488,12.5999985l0.0913086,12.4173889h4.5652161h4.6108704l-0.0913086-12.4173889     c0-8.1260834-0.2282562-13.0108643-0.547821-14.0608673c-0.6847839-1.9630432-3.1043549-3.6521759-5.2043457-3.6521759     c-1.9630508,0-4.5195694,1.141304-5.3869629,2.4652176c-0.6847839,0.9130478-0.6847839,0.8673935-0.6847839-0.5478287v-1.4608688     h-4.3369522h-4.3369598v14.8369598v14.8369522h4.3369598h4.3369522V116.2347794z M187.0804291,124.8173904     c0.5478363-1.7804337,1.0500031-3.3782578,1.0500031-3.5608673s-1.5065155-0.3652191-3.3782654-0.3652191h-3.4239044     l1.2782593-3.7434769l1.2782593-3.7891312l3.1500092-0.2282639l3.1043396-0.2282562l1.0500031-2.967392     c0.547821-1.6434784,1.0043488-3.1043472,1.0043488-3.2869568c0.0456543-0.2282639-1.2782593-0.3652191-2.8760834-0.3652191     h-2.967392l0.4108582-1.232605c0.2282715-0.7304382,0.7304382-2.2369614,1.1413116-3.4239197l0.7760925-2.1456451     l3.1956482-0.1369629l3.1956482-0.1369553l1.2782593-3.515213l1.232605-3.5608749h-7.8521729h-7.8978271l-2.0999908,6.0717392     c-1.1413116,3.2869568-3.9260864,11.4130478-6.1630402,18.032608l-4.0630493,11.9608688l8.2630463-0.0912933l8.217392-0.1369629     L187.0804291,124.8173904z M198.6760864,122.0782623c1.5978241-3.3782654,2.967392-6.0717392,3.0587006-6.0260849     c0.0912933,0.091301-0.1826172,2.3282547-0.5478363,4.9760818c-0.4108582,2.6021729-0.730423,5.2956543-0.730423,5.9804382     v1.1869507h4.1086884c3.8804321,0,4.1087036-0.0456543,4.2913055-1.0043411     c0.1369629-0.593483,0.6391296-5.158699,1.1413116-10.1804352l0.9130402-9.1304398l4.1086884-7.623909     c2.282608-4.1543503,4.1543579-7.7152176,4.1543579-7.8978271c0-0.1369553-1.6891327-0.2282639-3.7434845-0.1369553     l-3.7891235,0.1369553l-2.4195709,4.7021713c-1.3695679,2.6021729-2.5565186,4.6565247-2.6478271,4.5652161     c-0.0913086-0.091301,0.1369629-2.0086899,0.5021667-4.2456512c0.3652191-2.282608,0.6847839-4.3826065,0.6847839-4.656517     c0-0.4565201-1.1869507-0.593483-4.3369446-0.593483h-4.2913055l-0.2739258,1.5065231     c-0.1369476,0.7760849-0.6391296,4.4282608-1.0956421,8.0804367l-0.8674011,6.6195679l-5.1130371,9.9521713l-5.0673981,9.906517     h4.519577h4.5195618L198.6760864,122.0782623z M221.8217316,120.9369583l2.4195709-7.2130432l3.3326111-0.2282639     c4.1999969-0.2739105,7.1673889-1.6434784,8.4456482-3.8347855c0.5478363-0.9130402,1.6891327-3.6978226,2.5565186-6.2086945     c1.8260956-5.2043457,2.1000061-8.4456482,0.7760925-9.6326065c-1.3239136-1.232605-4.9760895-1.7347794-11.2304382-1.5978241     l-5.8891296,0.1369553l-5.8434753,17.1195679c-3.1956482,9.4043427-5.8434753,17.4847794-5.8434753,17.9412994     c-0.0456543,0.6847916,0.4565125,0.7760849,4.4282532,0.7760849h4.4282684L221.8217316,120.9369583z M245.0130463,120.1152191     c2.3739166-6.984787,2.8760834-8.126091,3.7434692-8.2630463c0.5934906-0.091301,1.1413116,0.1369553,1.2782745,0.5478287     c0.1369476,0.3652191-0.7760925,3.8347778-2.0543518,7.6695633s-2.3282623,7.2586975-2.3282623,7.5782623     c0,0.4565277,1.0043488,0.547821,4.1999969,0.4565277l4.1543427-0.1369629l2.5108795-7.4413071     c2.6934814-8.1717377,2.7391357-9.1760864,0.5021667-10.5456467l-1.3695679-0.8673935l1.5978394-0.2739105     c2.9673767-0.5478287,5.8434753-5.3413086,6.482605-11.0021744c0.2738953-2.2826157,0.2282715-2.5565262-1.0500183-3.7891312     c-1.6434631-1.6434784-4.3825989-2.0543518-12.4173737-1.826088l-5.1586914,0.1369553l-6.1174011,17.9413071     l-6.0717316,17.8956451h4.6565094h4.702179L245.0130463,120.1152191z M275.2347717,124.8630447     c0.5478516-1.7804337,1.004364-3.423912,1.004364-3.6065216c0-0.2282639-1.5065308-0.3652191-3.3782654-0.3652191h-3.4239197     l1.2782593-3.7434769l1.2782593-3.7891312l3.0587158-0.2282639l3.1043396-0.2282562l0.8217468-2.1456528     c0.4108582-1.141304,0.9130249-2.6478271,1.0956421-3.2869568c0.2739258-1.1869583,0.2739258-1.1869583-2.6934814-1.1869583     c-1.6434631,0-2.9673767-0.0456543-2.9673767-0.1369553c0-0.0456543,0.5021667-1.5065231,1.1412964-3.2413025     c0.6391296-1.734787,1.1412964-3.2413101,1.1412964-3.2869568c0-0.0913086,1.5065308-0.1826096,3.3326111-0.1826096h3.2869568     l0.8674011-2.876091c0.4565125-1.5521698,0.9586792-3.1956482,1.0499878-3.6065216     c0.2282715-0.7760849-0.3652039-0.8217392-7.5325928-0.8217392h-7.7608948l-2.0999756,6.0717392     c-1.1413269,3.2869568-3.9260864,11.4130478-6.1630554,18.032608l-4.0630493,11.9608688h8.2630615h8.3086853     L275.2347717,124.8630447z M39.304348,94.4130402v-2.282608h-4.7934799H29.717392v2.282608v2.2826157h4.7934761h4.7934799     V94.4130402z M110.9782639,94.4130402v-2.282608h-4.7934799h-4.7934799v2.282608v2.2826157h4.7934799h4.7934799V94.4130402z      M146.7239075,87.0630417c5.7978363-0.8673859,10.3630524-3.0130386,13.3760986-6.2543488     c1.0956421-1.1869507,1.3695526-1.826088,1.0499878-2.2369537c-0.3652039-0.4108734-1.0043488-0.2739105-2.8760834,0.7760849     c-2.6021729,1.5065231-7.8065186,2.7391357-11.3217316,2.7391357h-2.282608l0.2739105-2.6021805     c0.547821-4.7934723,1.2782593-7.623909,2.6478271-10.3173904c1.1869507-2.4195633,1.3239136-3.515213,0.4108582-3.515213     c-0.2282562,0-1.2782593,0.8673859-2.3282471,1.9630432c-3.469574,3.423912-5.8891296,10.3630447-5.9347839,16.891304v3.0586929     h1.8717346C142.6152191,87.5652161,144.9434814,87.3369598,146.7239075,87.0630417z M178.5891266,81.0826111     c0.3652191-0.3195648,1.5065308-1.2782669,2.6021729-2.1000061l1.9173889-1.5521698l0.0456543-7.3499985v-7.3956528     l3.7434845-2.967392c10.4543457-8.3086967,21.547821-18.7630424,24.6065216-23.1000023     c4.2456512-6.0260849,7.532608-14.9739113,8.5826111-23.1456509c0.2282562-1.826087,0.547821-4.1999998,0.7304382-5.2956514     l0.3195648-2.0086961l-3.1500092,0.3195653c-12.6912994,1.2782607-21.4108734,4.4739132-29.6739044,10.8195658     c-3.3782654,2.6021729-8.6282654,8.2630424-17.7586975,19.1282616c-3.2413025,3.8804321-6.1174011,7.2130432-6.3913116,7.395649     c-0.2282562,0.1826096-3.5608673,0.3652191-7.3499908,0.3652191h-6.9391327l-1.2782593,1.5065231     c-1.9630432,2.1913033-6.5739136,8.3086929-6.5739136,8.673912c0,0.1369553,0.7760773,0.4108696,1.7347717,0.5934792     c0.9130554,0.1369553,2.8304443,0.5478249,4.2000122,0.8673897c1.3695526,0.3195648,3.2869568,0.7304344,4.2456512,0.8673935     c1.4152069,0.2739105,1.6891327,0.5021706,1.6891327,1.4608688c0,0.6391296-0.4565277,2.1913033-1.0043488,3.423912     c-0.9130554,2.1456528-0.9130554,2.4195671-0.2739258,3.7434807c1.734787,3.515213,8.4456635,9.5869522,10.5913086,9.5413055     c0.502182,0,1.9630432-0.4565277,3.1956482-0.9587021c3.2869568-1.4608688,3.6065216-1.1869507,4.5652161,3.6978302     c0.4565277,2.3282623,1.0500031,5.0217361,1.2782745,5.9347839l0.5021667,1.6891251l2.6021729-1.7804337     C176.8087006,82.4521713,178.2695618,81.4021759,178.5891266,81.0826111z"/><g>
			
			
			<path id="pmO91FNFT" fill="#FFFFFF" d="M75.0043488,106.4195633c0.1369553-2.7391281,0.2282562-3.1043472,1.0499954-3.1043472     c1.0043488,0,1.5065231,1.9630432,1.1869583,4.702179c-0.1369553,1.1869507-0.3195648,1.4608688-1.2782593,1.4608688     C74.9130402,109.4782639,74.8673935,109.3869553,75.0043488,106.4195633z"/>
			<path id="p1Guz6zEEr" fill="#FFFFFF" d="M146.5869598,106.5108719c0-2.282608,0.1826019-3.0587006,0.7304382-3.2869568     c1.3239136-0.5021744,1.780426,0.8217392,1.5978241,4.7934799c-0.0456543,1.232605-0.2282715,1.4608688-1.1869659,1.4608688     C146.6326141,109.4782639,146.5869598,109.3869553,146.5869598,106.5108719z"/>
			<path id="pVkWrasYH" fill="#FFFFFF" d="M16.706522,102.858696c0-4.5195618,0.0456524-4.7934799,0.9586945-4.7934799     c1.6434784,0,2.0086975,0.9130478,2.0086975,4.7934799s-0.3652191,4.7934799-2.0086975,4.7934799     C16.7521744,107.6521759,16.706522,107.3782578,16.706522,102.858696z"/>
			<path id="pQRENAnu6" fill="#FFFFFF" d="M226.7065277,106.7847824c2.2369537-7.076088,2.8760834-8.4913025,3.7891235-8.6282578     c1.5521698-0.2282639,1.6891327,1.0499954,0.5934753,4.5652161c-1.1412964,3.423912-2.2369537,4.9304352-3.7434692,4.9304352     C226.6152191,107.6521759,226.4782562,107.4695663,226.7065277,106.7847824z"/>
			<path id="p1AJQKNasu" fill="#FFFFFF" d="M249.7608643,106.1913071c0.0456543-0.0913086,0.5934906-1.8717422,1.3239136-4.017395     c1.0500031-3.1043472,1.4608765-3.9260864,2.282608-4.0173874c1.4152222-0.2282639,1.6434784,1.0043411,0.7760925,3.8804321     c-0.8673859,2.7847824-2.1000061,4.2456512-3.4695587,4.2456512     C250.1717377,106.282608,249.7608643,106.2369537,249.7608643,106.1913071z"/>
			<path id="pEupWLQPA" fill="#FFFFFF" d="M194.6130371,37.3934784c-3.3782501-0.913044-5.7065125-4.8391304-4.7021637-7.9434776     c1.5978241-4.7934799,7.3043365-6.2086964,10.7739105-2.6021748c1.734787,1.826088,2.1000061,5.4326077,0.7304382,7.6239147     C200.0456543,36.663044,196.8500061,38.032608,194.6130371,37.3934784z"/>
		</g><g>
		<path d="M180.4639893,92.7457047h15.7503662l-2.29422,7.106102h-6.3046265l-2.1738434,6.7332535h5.9007721l-2.1809082,6.755188    h-5.9007874l-2.5207977,7.8079453h6.9328613l-2.29422,7.1061096H169L180.4639893,92.7457047z"/>
		<path d="M218.7068634,92.7457047l-8.3905182,15.7036133l-1.3907318,19.804985h-8.7502136    c0.0967712-3.5403595,0.5319977-7.8529663,1.3058777-12.9401321c-0.9654083,2.2532654-2.0668182,4.6369705-3.3044281,7.1499634    l-2.7579651,5.7901688h-9.1989288l9.826828-19.804985l1.637146-15.7036133h9.1316223    c-0.1497498,0.9777222-0.3476868,2.6076508-0.5944061,4.8897705c-0.1650848,1.7384338-0.3596191,3.3395004-0.583374,4.8043594    l5.1490326-9.6941299H218.7068634z"/>
		<path d="M221.7245636,92.7457047h9.513031c2.5725098,0,4.4867401,0.1973877,5.7432556,0.5921707    c1.2559204,0.394783,2.1115723,0.9650269,2.5663452,1.7107315c0.4547882,0.7457047,0.6345062,1.6483917,0.5391998,2.7080765    c-0.0957031,1.0608368-0.502243,2.7023087-1.2196503,4.924408l-0.9984131,3.0924683    c-0.7319336,2.2671204-1.5049591,3.9189835-2.3182526,4.9567337c-0.8142548,1.0389023-1.9499664,1.8353958-3.4080963,2.3906326    c-1.4585114,0.5563889-3.2194672,0.8334274-5.2836151,0.8334274h-2.5353088l-4.616745,14.2999496h-9.4457397    L221.7245636,92.7457047z M229.2088776,98.8209839l-2.9173279,9.0361557    c0.264389,0.015007,0.4936066,0.0219345,0.688446,0.0219345c0.8673401,0,1.5370331-0.208931,2.0077515-0.6244965    c0.4714508-0.4178696,0.9192352-1.2836227,1.3440857-2.5995712l0.9417725-2.9170074    c0.3916779-1.2132111,0.4517517-2.0027771,0.1813812-2.3687057    C231.1836548,99.0045242,230.4352112,98.8209839,229.2088776,98.8209839z"/>
		<path d="M244.7891998,92.7457047h6.6860504c4.4571686,0,7.4204712,0.1685333,8.8902283,0.5044403    c1.468811,0.3370667,2.4780884,1.1959,3.0272522,2.5764847c0.547821,1.3828964,0.3341064,3.5865326-0.6430664,6.613205    c-0.8921814,2.7634811-1.8437195,4.6208115-2.8530579,5.5708389c-1.0102844,0.9511719-2.5777893,1.5214157-4.7030487,1.7107239    c1.7228546,0.4536591,2.7832489,1.0608368,3.1815948,1.8203964c0.3973999,0.760704,0.5722351,1.4590759,0.5243225,2.0939636    c-0.0486755,0.6371994-0.5354919,2.3883286-1.4604797,5.2533951l-3.0235443,9.3651505h-8.772644l3.8095245-11.7996521    c0.6134338-1.9000397,0.8400574-3.0774612,0.6800842-3.5311203c-0.1609344-0.4524994-0.891098-0.6799011-2.1924133-0.6799011    l-5.1690521,16.0106735h-9.4457397L244.7891998,92.7457047z M252.2735138,98.8209839l-2.549118,7.8956757    c1.0615997,0,1.8523407-0.1431427,2.3703156-0.4271088c0.5187073-0.2862778,1.0299988-1.2097473,1.5353546-2.7750244    l0.6302032-1.9519882c0.3633575-1.1254807,0.395813-1.8642578,0.098175-2.2151794    C254.0601959,98.9964447,253.3652344,98.8209839,252.2735138,98.8209839z"/>
		<path d="M269.5365601,92.7457047h15.7503662l-2.29422,7.106102h-6.3046265l-2.1738281,6.7332535h5.9007874l-2.1809387,6.755188    h-5.9007568l-2.520813,7.8079453h6.9328613l-2.29422,7.1061096h-16.3786011L269.5365601,92.7457047z"/>
		<path d="M305.1736145,103.4925919h-8.772644l0.8497009-2.6318893c0.3965149-1.2282181,0.5366516-2.0097046,0.4211121-2.3467712    c-0.1159058-0.3359146-0.4358521-0.5044479-0.9589539-0.5044479c-0.5686035,0-1.0718384,0.2274094-1.5099792,0.6810608    s-0.8057251,1.1404877-1.1034851,2.0628052c-0.3823853,1.1843491-0.5072937,2.0778046-0.372406,2.6769104    c0.1191101,0.6002502,0.775238,1.3240204,1.9683228,2.1713028c3.4169922,2.4391174,5.4184875,4.4418945,6.0057983,6.0060272    c0.5863647,1.5652771,0.3182068,4.0875092-0.8050537,7.5666809c-0.8168945,2.5303116-1.7216797,4.3945694-2.7142944,5.5927734    c-0.9930115,1.1993561-2.4880676,2.2036285-4.4851074,3.0162811C291.699707,128.5936737,289.5492554,129,287.2459717,129    c-2.5282288,0-4.5343628-0.4686584-6.0197144-1.4036789c-1.4859619-0.9350128-2.2712402-2.1274414-2.3571167-3.5749817    c-0.0864868-1.4475403,0.3001709-3.5011063,1.1595764-6.1630096l0.7505798-2.3248367h8.772644l-1.394928,4.3206863    c-0.429718,1.3309479-0.5824585,2.1863174-0.4582825,2.5660934c0.1238098,0.380928,0.5002136,0.5702438,1.128418,0.5702438    c0.6282349,0,1.1731567-0.2412567,1.6359558-0.7237701c0.4622192-0.4825134,0.8468018-1.198204,1.1538696-2.1493759    c0.6749268-2.0905075,0.8245239-3.4572449,0.4491272-4.1013641c-0.3911133-0.6429672-1.5173035-1.717659-3.3790894-3.2240677    c-1.8579102-1.5202637-3.0568237-2.6238098-3.5975647-3.3117981c-0.5410767-0.6868286-0.8667297-1.6368484-0.9753418-2.8512115    c-0.1096191-1.2132111,0.140564-2.7634888,0.7495117-4.6496735c0.8780518-2.7196198,1.8746338-4.7073898,2.9917297-5.9656219    c1.1161499-1.2570724,2.5814819-2.2405701,4.3965759-2.9504852C294.06604,92.3543854,296.0952454,92,298.3388672,92    c2.4526672,0,4.4181519,0.3878555,5.8956909,1.1624222c1.4771729,0.7757111,2.3065186,1.7511292,2.4876709,2.9273987    c0.1807861,1.1774216-0.1846313,3.1778946-1.095459,5.9990921L305.1736145,103.4925919z"/>
		<path d="M328.9337769,103.4925919h-8.772644l0.8497009-2.6318893c0.3965454-1.2282181,0.5366516-2.0097046,0.4211121-2.3467712    c-0.1159058-0.3359146-0.4358215-0.5044479-0.9589539-0.5044479c-0.5686035,0-1.0718384,0.2274094-1.5099792,0.6810608    s-0.8057251,1.1404877-1.1034851,2.0628052c-0.3823853,1.1843491-0.5072632,2.0778046-0.372406,2.6769104    c0.1191406,0.6002502,0.775238,1.3240204,1.9683228,2.1713028c3.4169922,2.4391174,5.4184875,4.4418945,6.0057983,6.0060272    c0.5863647,1.5652771,0.3182068,4.0875092-0.8050537,7.5666809c-0.8168945,2.5303116-1.7216797,4.3945694-2.7142944,5.5927734    c-0.9930115,1.1993561-2.4880676,2.2036285-4.4851074,3.0162811C315.4598694,128.5936737,313.3094177,129,311.006134,129    c-2.5282288,0-4.5343628-0.4686584-6.0197144-1.4036789c-1.4859619-0.9350128-2.2712097-2.1274414-2.3571167-3.5749817    c-0.0864868-1.4475403,0.3002014-3.5011063,1.1595764-6.1630096l0.7505798-2.3248367h8.772644l-1.394928,4.3206863    c-0.429718,1.3309479-0.5824585,2.1863174-0.4582825,2.5660934c0.1238403,0.380928,0.5002136,0.5702438,1.1284485,0.5702438    c0.6282043,0,1.1731262-0.2412567,1.6359253-0.7237701c0.4622192-0.4825134,0.8468018-1.198204,1.1538696-2.1493759    c0.6749268-2.0905075,0.8245239-3.4572449,0.4491272-4.1013641c-0.3911133-0.6429672-1.5172729-1.717659-3.3790894-3.2240677    c-1.8579102-1.5202637-3.0568237-2.6238098-3.5975647-3.3117981c-0.5410767-0.6868286-0.8667297-1.6368484-0.9753418-2.8512115    c-0.1095886-1.2132111,0.140564-2.7634888,0.7495117-4.6496735c0.8780518-2.7196198,1.8746338-4.7073898,2.9917603-5.9656219    c1.1161194-1.2570724,2.5814514-2.2405701,4.3965454-2.9504852C317.8262329,92.3543854,319.8554077,92,322.0990601,92    c2.4526367,0,4.4181519,0.3878555,5.8956909,1.1624222c1.4771423,0.7757111,2.306488,1.7511292,2.4876404,2.9273987    c0.1807861,1.1774216-0.1846313,3.1778946-1.095459,5.9990921L328.9337769,103.4925919z"/>
	</g><g>
		<path d="M7,91.9863281h9.4222221c2.5480003,0,4.5071106,0.1991806,5.8777771,0.5975494    c1.3702221,0.3983688,2.4000015,0.9737854,3.0888901,1.7262497c0.6888885,0.7524719,1.1555557,1.6634064,1.3999996,2.7336807    c0.2444439,1.0693893,0.3666668,2.725708,0.3666668,4.968071v3.1205368c0,2.2875061-0.2373333,3.9544449-0.7111111,5.001709    c-0.4742222,1.0481415-1.3444443,1.8519592-2.6111107,2.412323c-1.2666664,0.5612564-2.9222221,0.8409958-4.9666672,0.8409958    h-2.5111103v14.4297104H7V91.9863281z M16.3555565,98.116745v9.1181564    c0.2666664,0.0150528,0.4959984,0.0221329,0.6888885,0.0221329c0.8591099,0,1.455555-0.2098083,1.7888889-0.6311874    c0.3333321-0.4196167,0.5-1.2942505,0.5-2.622139v-2.9434814c0-1.2243118-0.1928902-2.0210495-0.5777779-2.3901978    C18.3702221,98.3017578,17.5702229,98.116745,16.3555565,98.116745z"/>
		<path d="M38.8222237,91.9863281v4.6697388h-9.2444458v-4.6697388H38.8222237z M38.8222237,98.4487152v29.3684387h-9.2444458    V98.4487152H38.8222237z"/>
		<path d="M51.1777763,98.4487152l-0.1555557,2.5946884c0.8000031-1.0490265,1.6813354-1.8324814,2.6444473-2.349472    c0.9626656-0.5178757,2.0146637-0.7763748,3.1555557-0.7763748c1.3924446,0,2.5959969,0.3726959,3.6111107,1.1180801    c1.0146675,0.7445068,1.6479988,1.6040878,1.8999977,2.5778732c0.2515564,0.9737854,0.3777809,2.626564,0.3777809,4.9574509    v12.3714828c0,2.6708221-0.1595573,4.5705872-0.4777794,5.6984024c-0.3186684,1.1295929-0.9706688,2.0290146-1.955555,2.7000427    c-0.9853325,0.6719131-2.1742249,1.0074234-3.5666656,1.0074234c-1.1111145,0-2.140892-0.2584991-3.0888901-0.7763748    c-0.9484444-0.5169907-1.8151131-1.2853928-2.6000023-2.3052139V132H42.044445V98.4487152H51.1777763z M53.7333336,106.9914551    c0-1.8147812-0.0666656-2.9133835-0.2000008-3.2975845c-0.1333313-0.383316-0.5039978-0.5754166-1.1111107-0.5754166    c-0.5928879,0-0.9742203,0.2213135-1.1444435,0.6639404c-0.1706657,0.442627-0.255558,1.5129089-0.255558,3.2090607v12.1723022    c0,1.7705154,0.0888901,2.8770905,0.2666664,3.3197174c0.1777802,0.442627,0.5626678,0.6639404,1.1555557,0.6639404    c0.5777779,0,0.9368896-0.2027206,1.0777779-0.6081696c0.1404457-0.4063339,0.211113-1.3907394,0.211113-2.9549942V106.9914551z"/>
		<path d="M86,113.6530228H74.3777771v6.3517303c0,1.3278885,0.0960007,2.1839294,0.288887,2.5672455    c0.1924438,0.384201,0.5626678,0.5754166,1.1111145,0.5754166c0.6813354,0,1.1368866-0.2540665,1.3666687-0.7639771    c0.229332-0.5081329,0.3444443-1.4934311,0.3444443-2.9541016v-3.8730087H86v2.1688843    c0,1.8147812-0.1151123,3.2090607-0.3444443,4.1828461c-0.2297745,0.9737854-0.7666702,2.0139618-1.6111145,3.1205368    c-0.8444443,1.1065674-1.9151077,1.9369431-3.2111053,2.4893417c-1.2964478,0.5541763-2.922226,0.8303757-4.8777771,0.8303757    c-1.8964462,0-3.5706711-0.2735443-5.0222244-0.8188629c-1.4520035-0.5453262-2.5817795-1.2951355-3.3888931-2.245903    c-0.8075485-0.9525375-1.3666611-1.9998016-1.6777725-3.1426697c-0.3111115-1.1437531-0.4666672-2.8071518-0.4666672-4.9910812    v-8.5648727c0-2.5672531,0.3479996-4.591835,1.0444412-6.075531c0.6959991-1.4819183,1.8368912-2.6185913,3.422226-3.4082413    c1.5848846-0.788765,3.4071121-1.1835938,5.4666672-1.1835938c2.518219,0,4.5960007,0.4753876,6.2333298,1.4279251    c1.6368866,0.9507675,2.7848892,2.2131424,3.4444427,3.7835922C85.6702194,104.7012939,86,106.9108963,86,109.7578888V113.6530228    z M77,108.8726273v-2.1467514c0-1.519104-0.0817795-2.5008545-0.2444458-2.9434814    c-0.1631088-0.442627-0.4964447-0.6639404-1-0.6639404c-0.6222229,0-1.0075531,0.1876678-1.1555557,0.5647888    c-0.1484451,0.375351-0.2222214,1.3907394-0.2222214,3.0426331v2.1467514H77z"/>
		<path d="M98.1777802,91.9863281v35.8308258h-9.2444458V91.9863281H98.1777802z"/>
		<path d="M110.6444473,91.9863281v4.6697388h-9.2444458v-4.6697388H110.6444473z M110.6444473,98.4487152v29.3684387h-9.2444458    V98.4487152H110.6444473z"/>
		<path d="M123,98.4487152l-0.1555557,2.7053452c0.6515579-1.0791245,1.447998-1.8882523,2.3893356-2.4273758    c0.9404449-0.5391235,2.0248871-0.8091278,3.2551117-0.8091278c1.5404358,0,2.8000031,0.3620758,3.777771,1.0844421    c0.9777832,0.723259,1.6071167,1.6341858,1.8888855,2.7336807c0.280899,1.0986023,0.422226,2.9319763,0.422226,5.4992218    v20.5822525h-8.9777756v-20.3388062c0-2.0210419-0.0666656-3.2533264-0.1999969-3.6959534    s-0.5039978-0.6639404-1.1111145-0.6639404c-0.6373291,0-1.0373306,0.2549515-1.1999969,0.763092    c-0.163559,0.509903-0.2444458,1.8705444-0.2444458,4.0836945v19.8519135h-8.9777756V98.4487152H123z"/>
		<path d="M158,113.6530228h-11.6222229v6.3517303c0,1.3278885,0.0960083,2.1839294,0.2888947,2.5672455    c0.1920013,0.384201,0.5626678,0.5754166,1.1110992,0.5754166c0.6808929,0,1.1369019-0.2540665,1.3662262-0.7639771    c0.2302246-0.5081329,0.3448944-1.4934311,0.3448944-2.9541016v-3.8730087H158v2.1688843    c0,1.8147812-0.1146698,3.2090607-0.3439941,4.1828461c-0.2302246,0.9737854-0.7671204,2.0139618-1.611557,3.1205368    c-0.8444519,1.1065674-1.9146729,1.9369431-3.2115631,2.4893417c-1.29599,0.5541763-2.9217682,0.8303757-4.8773346,0.8303757    c-1.8968811,0-3.5706635-0.2735443-5.0222168-0.8188629c-1.4524384-0.5453262-2.5813293-1.2951355-3.389328-2.245903    c-0.8071136-0.9525375-1.3662262-1.9998016-1.6773376-3.1426697c-0.3111115-1.1437531-0.4666748-2.8071518-0.4666748-4.9910812    v-8.5648727c0-2.5672531,0.3475647-4.591835,1.0444489-6.075531c0.6959991-1.4819183,1.836441-2.6185913,3.422226-3.4082413    c1.5848846-0.788765,3.4071045-1.1835938,5.4666595-1.1835938c2.5182343,0,4.5964508,0.4753876,6.2337799,1.4279251    c1.6364441,0.9507675,2.7848969,2.2131424,3.4435577,3.7835922C157.6702271,104.7012939,158,106.9108963,158,109.7578888    V113.6530228z M149,108.8726273v-2.1467514c0-1.519104-0.0817719-2.5008545-0.2444458-2.9434814    c-0.163559-0.442627-0.4968872-0.6639404-1-0.6639404c-0.6222229,0-1.0079956,0.1876678-1.1555481,0.5647888    c-0.1484528,0.375351-0.222229,1.3907394-0.222229,3.0426331v2.1467514H149z"/>
	</g>

</svg>
